<?xml version="1.0" encoding="UTF-8"?>
<svg id="Layer_1" data-name="Layer 1" xmlns="http://www.w3.org/2000/svg" viewBox="0 0 397.81 184.25">
  <defs>
    <style>
      .cls-1 {
        fill: #d51f39;
      }

      .cls-2 {
        fill: #522a53;
      }
    </style>
  </defs>
  <g>
    <g>
      <path class="cls-2" d="M22.06,120.02c-12.43,0-22.06,9.35-22.06,21.26s9.63,21.26,22.06,21.26,22.06-9.35,22.06-21.26-9.63-21.26-22.06-21.26ZM22.06,151.99c-5.81,0-10.32-4.73-10.32-10.72s4.5-10.72,10.32-10.72,10.32,4.73,10.32,10.72-4.5,10.72-10.32,10.72Z"/>
      <polygon class="cls-2" points="71.14 144.45 62.14 120.64 49.19 120.64 49.19 161.91 60.48 161.91 60.48 148.46 60.36 138.77 60.48 138.71 65.89 155.39 75.75 155.39 81.17 138.71 81.28 138.77 81.17 148.46 81.17 161.91 92.91 161.91 92.91 120.64 80.07 120.64 71.14 144.45"/>
      <path class="cls-2" d="M112.97,120.64l-16.7,41.27h12.14l3.02-8.44h14.14l2.91,8.44h12.77l-16.7-41.27h-11.57ZM114.57,144.81l1.42-3.93c.97-2.68,1.77-5.07,2.57-7.7h.11c.8,2.57,1.54,4.9,2.51,7.7l1.37,3.93h-7.98Z"/>
      <path class="cls-2" d="M172.88,120.64v13.22c0,3.48.06,7.01.11,10.49l-.11.06c-2.05-2.96-4.05-5.76-6.33-8.84l-10.94-14.93h-11v41.27h11.29v-13.22c0-3.48-.06-7.01-.11-10.49l.11-.06c2.05,2.96,4.05,5.76,6.33,8.84l10.94,14.93h11v-41.27h-11.29Z"/>
      <polygon class="cls-2" points="25.2 79.34 18.79 72.91 12.38 79.35 18.77 85.72 25.2 79.34"/>
      <path class="cls-2" d="M149.26,68.34c1.36-.32,2.72-.61,4.05-1.03,1.43-.44,2.49-1.35,2.91-2.85.46-1.67.43-3.33-.23-4.95-.49-1.21-1.31-2.15-2.53-2.65-2.19-.9-5.21-.19-6.47,2.58-.51,1.12-.72,2.3-.76,3.52-.02.5,0,.99,0,1.49-.98.22-1.91.43-2.85.63v4.55c.11-.02.2-.02.29-.04,1.87-.42,3.74-.82,5.61-1.25ZM152.89,60.99c.43.17.7.48.76.95.04.42-.1.74-.49.91-.37.16-.76.28-1.15.36-.96.22-1.93.4-2.91.61-.17-2.24,1.75-3.65,3.8-2.83Z"/>
      <path class="cls-2" d="M29.38,75.53c6,20.73,4.34,28.24-5.17,28.24h-4.02c-3.08,0-8.8-1.18-5.29-10.36-2.76-.89-8.82-1.96-11.67-2.87-1.79,4.15-2.59,8.41-1.92,12.82.89,5.88,4.98,12.41,20.86,12.41,12.75,0,18.28-3.54,21.94-9.34,2.94-4.66,3.11-14.16-1.54-30.88h-13.18Z"/>
      <path class="cls-2" d="M63.05,102.39h44.67c4.54,0,8.23-3.68,8.23-8.23v-1.92l4.76,6.13c1.97,2.53,5,4.02,8.21,4.02h28.44c4.36-.02,10.16-.19,14.49-.74,4.1-.52,8.45-1.58,12.32-3.04v-12.35c-.49.21-6.57,3.75-16.25,3.75-1.79,0-7.44-.52-7.44-5.25,0-1.4,2.11-4.32,5.22-4.32,4.55,0,9.41,2.37,10.63,2.96,1.68-3.7,3.39-7.46,5.11-11.24-4.39-2.61-10.29-4.18-15.07-4.13-15,.16-15.5,10.08-15.5,12.47,0,6.62,3.93,9.92,3.93,9.92l-23.12-.04c-1.85,0-3.61-.86-4.75-2.32,0,0-5.91-7.55-7.89-10.06-2.39-3.03-6.03-6.54-14.61-6.54s-13.22,8.64-13.33,18.94h-24.29c-2.08,0-3.76-1.68-3.76-3.76v-28.03h-13.08v30.7c0,7.22,5.85,13.08,13.08,13.08ZM104.97,82.73c3.71,0,4.65,1.68,8.94,6.9l.6.77h-15.68c.14-3.39,2.15-7.68,6.13-7.68Z"/>
    </g>
    <g>
      <g>
        <rect class="cls-1" x="289.45" y="130.75" width="15.04" height="15.05"/>
        <polygon class="cls-2" points="306.35 113.85 289.45 130.75 304.5 130.75 304.5 145.79 321.4 128.89 306.35 113.85"/>
      </g>
      <g>
        <rect class="cls-1" x="306.35" y="38.29" width="15.04" height="15.05"/>
        <polygon class="cls-2" points="304.5 70.24 321.4 53.33 306.35 53.33 306.35 38.29 289.45 55.19 304.5 70.24"/>
      </g>
      <g>
        <g>
          <rect class="cls-2" x="306.35" width="15.04" height="15.05"/>
          <polygon class="cls-1" points="304.5 31.95 321.4 15.05 306.35 15.05 306.35 0 289.45 16.9 304.5 31.95"/>
        </g>
        <g>
          <rect class="cls-1" x="289.45" y="169.2" width="15.04" height="15.05"/>
          <polygon class="cls-2" points="306.35 152.3 289.45 169.2 304.5 169.2 304.5 184.25 321.4 167.34 306.35 152.3"/>
        </g>
      </g>
      <g>
        <g>
          <rect class="cls-1" x="263.05" y="7.07" width="15.04" height="15.05" transform="translate(28.96 137.25) rotate(-30)"/>
          <polygon class="cls-2" points="274.67 40.44 280.85 17.35 267.82 24.87 260.3 11.84 254.11 34.93 274.67 40.44"/>
        </g>
        <g>
          <rect class="cls-2" x="333.02" y="162.05" width="15.04" height="15.05" transform="translate(-39.16 193) rotate(-30)"/>
          <polygon class="cls-1" points="336.45 143.74 330.26 166.82 343.29 159.3 350.81 172.33 357 149.25 336.45 143.74"/>
        </g>
      </g>
      <g>
        <g>
          <rect class="cls-2" x="229.09" y="34.85" width="15.04" height="15.05" transform="translate(81.62 226.1) rotate(-60)"/>
          <polygon class="cls-1" points="253.08 62.71 246.89 39.62 239.37 52.65 226.34 45.13 232.52 68.21 253.08 62.71"/>
        </g>
        <g>
          <rect class="cls-1" x="367.17" y="134.09" width="15.04" height="15.05" transform="translate(64.72 395.31) rotate(-60)"/>
          <polygon class="cls-2" points="358.23 121.28 364.42 144.36 371.94 131.33 384.97 138.86 378.78 115.77 358.23 121.28"/>
        </g>
      </g>
      <g>
        <g>
          <rect class="cls-1" x="213.57" y="75.89" width="15.05" height="15.04"/>
          <polygon class="cls-2" points="245.51 92.79 228.61 75.89 228.61 90.93 213.57 90.93 230.47 107.83 245.51 92.79"/>
        </g>
        <g>
          <rect class="cls-2" x="382.76" y="92.79" width="15.05" height="15.04"/>
          <polygon class="cls-1" points="365.86 90.93 382.76 107.83 382.76 92.79 397.81 92.79 380.91 75.89 365.86 90.93"/>
        </g>
      </g>
      <g>
        <g>
          <rect class="cls-2" x="220.64" y="119.19" width="15.05" height="15.04" transform="translate(-32.79 131.07) rotate(-30)"/>
          <polygon class="cls-1" points="254 122.62 230.92 116.44 238.44 129.46 225.41 136.99 248.5 143.17 254 122.62"/>
        </g>
        <g>
          <rect class="cls-2" x="375.62" y="49.23" width="15.05" height="15.04" transform="translate(22.96 199.19) rotate(-30)"/>
          <polygon class="cls-1" points="357.3 60.84 380.39 67.02 372.87 54 385.9 46.47 362.81 40.29 357.3 60.84"/>
        </g>
      </g>
      <g>
        <g>
          <rect class="cls-2" x="248.42" y="153.15" width="15.05" height="15.04" transform="translate(-11.17 302) rotate(-60)"/>
          <polygon class="cls-1" points="276.27 144.21 253.19 150.4 266.22 157.92 258.69 170.95 281.78 164.76 276.27 144.21"/>
        </g>
        <g>
          <rect class="cls-1" x="347.65" y="15.07" width="15.05" height="15.04" transform="translate(158.03 318.89) rotate(-60)"/>
          <polygon class="cls-2" points="334.84 39.06 357.93 32.87 344.9 25.35 352.42 12.32 329.34 18.5 334.84 39.06"/>
        </g>
      </g>
      <g>
        <g>
          <rect class="cls-1" x="342.24" y="68.5" width="15.05" height="15.04" transform="translate(8.85 185.08) rotate(-30)"/>
          <polygon class="cls-2" points="323.92 80.11 347.01 86.29 339.49 73.27 352.52 65.74 329.43 59.56 323.92 80.11"/>
        </g>
        <g>
          <rect class="cls-1" x="253.72" y="100.09" width="15.05" height="15.04" transform="translate(-18.81 145.05) rotate(-30)"/>
          <polygon class="cls-2" points="287.08 103.52 264 97.34 271.52 110.37 258.49 117.89 281.58 124.07 287.08 103.52"/>
        </g>
      </g>
      <g>
        <g>
          <rect class="cls-2" x="333.87" y="114.86" width="15.04" height="15.05" transform="translate(64.72 356.86) rotate(-60)"/>
          <polygon class="cls-1" points="324.93 102.05 331.12 125.14 338.64 112.11 351.67 119.63 345.48 96.54 324.93 102.05"/>
        </g>
        <g>
          <rect class="cls-2" x="262.25" y="53.99" width="15.04" height="15.05" transform="translate(81.62 264.39) rotate(-60)"/>
          <polygon class="cls-1" points="286.24 81.85 280.05 58.77 272.53 71.79 259.49 64.27 265.68 87.36 286.24 81.85"/>
        </g>
      </g>
      <g>
        <rect class="cls-2" x="307.33" y="84.34" width="15.05" height="15.05" transform="translate(27.26 249.53) rotate(-45)"/>
        <polygon class="cls-1" points="292.5 102.5 314.85 102.5 304.21 91.86 314.85 81.22 292.5 81.22 292.5 102.5"/>
      </g>
    </g>
  </g>
  <g>
    <path class="cls-2" d="M3.8,48.14v-24.43h16.62v4.73h-11.3v4.97h9.69v4.73h-9.69v5.28h11.3v4.73H3.8Z"/>
    <path class="cls-2" d="M22.98,48.14l6.06-9.35-5.98-9.03h5.88l3.43,5.77h.14l3.33-5.77h5.46l-6.09,9.21,6.12,9.17h-5.88l-3.53-5.98h-.14l-3.4,5.98h-5.39Z"/>
    <path class="cls-2" d="M44.36,29.76h5.18v3.08h.17c.26-1.03.85-1.87,1.77-2.52.92-.65,1.98-.98,3.17-.98,2.33,0,4.09.82,5.29,2.45,1.19,1.63,1.78,4.01,1.78,7.14s-.59,5.51-1.78,7.16c-1.19,1.65-2.95,2.47-5.29,2.47-.61,0-1.18-.09-1.71-.26-.54-.18-1.02-.42-1.45-.74-.43-.31-.8-.69-1.1-1.12-.3-.43-.52-.89-.67-1.38h-.17v10.08h-5.18v-25.38ZM52.94,44.36c.98,0,1.79-.34,2.43-1.03.64-.69.96-1.62.96-2.78v-3.18c0-1.17-.32-2.09-.96-2.78-.64-.69-1.45-1.03-2.43-1.03s-1.79.24-2.43.72c-.64.48-.96,1.14-.96,1.98v5.42c0,.84.32,1.5.96,1.98.64.48,1.45.72,2.43.72Z"/>
    <path class="cls-2" d="M73.31,48.56c-1.4,0-2.65-.23-3.75-.68-1.1-.45-2.02-1.1-2.78-1.92-.76-.83-1.33-1.84-1.72-3.03-.38-1.19-.58-2.52-.58-3.99s.19-2.76.56-3.94c.37-1.18.93-2.19,1.66-3.03s1.64-1.49,2.71-1.94c1.07-.46,2.3-.68,3.68-.68,1.52,0,2.82.26,3.9.77s1.97,1.2,2.66,2.06c.69.86,1.19,1.86,1.5,2.99s.47,2.32.47,3.55v1.54h-11.79v.28c0,1.2.33,2.16.98,2.86.65.71,1.68,1.06,3.08,1.06,1.07,0,1.95-.21,2.62-.64s1.31-.94,1.89-1.54l2.59,3.23c-.82.96-1.88,1.71-3.2,2.25-1.32.54-2.82.81-4.5.81ZM73.2,33.16c-1.05,0-1.87.34-2.47,1.03-.59.69-.89,1.6-.89,2.75v.28h6.44v-.31c0-1.12-.25-2.02-.75-2.71-.5-.69-1.28-1.03-2.33-1.03Z"/>
    <path class="cls-2" d="M85.31,48.14v-18.38h5.18v3.99h.17c.09-.51.26-1.01.49-1.49.23-.48.54-.9.93-1.28.38-.37.85-.67,1.38-.89.54-.22,1.17-.33,1.89-.33h.91v4.83h-1.29c-1.52,0-2.64.2-3.38.59-.73.4-1.1,1.13-1.1,2.21v10.75h-5.18Z"/>
    <path class="cls-2" d="M102.04,27.8c-1.05,0-1.81-.24-2.29-.72-.48-.48-.72-1.09-.72-1.84v-.77c0-.75.24-1.36.72-1.84s1.24-.72,2.29-.72,1.81.24,2.29.72c.48.48.72,1.09.72,1.84v.77c0,.75-.24,1.36-.72,1.84-.48.48-1.24.72-2.29.72ZM99.45,29.76h5.18v18.38h-5.18v-18.38Z"/>
    <path class="cls-2" d="M117.13,48.56c-1.4,0-2.65-.23-3.75-.68-1.1-.45-2.02-1.1-2.78-1.92-.76-.83-1.33-1.84-1.72-3.03-.38-1.19-.58-2.52-.58-3.99s.19-2.76.56-3.94c.37-1.18.93-2.19,1.66-3.03.73-.84,1.64-1.49,2.71-1.94,1.07-.46,2.3-.68,3.68-.68,1.52,0,2.82.26,3.9.77s1.97,1.2,2.66,2.06c.69.86,1.19,1.86,1.5,2.99.31,1.13.47,2.32.47,3.55v1.54h-11.79v.28c0,1.2.33,2.16.98,2.86.65.71,1.68,1.06,3.08,1.06,1.07,0,1.95-.21,2.62-.64s1.31-.94,1.89-1.54l2.59,3.23c-.82.96-1.88,1.71-3.2,2.25-1.32.54-2.82.81-4.5.81ZM117.02,33.16c-1.05,0-1.87.34-2.47,1.03-.59.69-.89,1.6-.89,2.75v.28h6.44v-.31c0-1.12-.25-2.02-.75-2.71-.5-.69-1.28-1.03-2.33-1.03Z"/>
    <path class="cls-2" d="M129.13,48.14v-18.38h5.18v3.12h.21c.33-.96.9-1.79,1.71-2.49.82-.7,1.95-1.05,3.4-1.05,1.89,0,3.32.63,4.29,1.89.97,1.26,1.45,3.06,1.45,5.39v11.52h-5.18v-11.1c0-1.19-.19-2.07-.56-2.64-.37-.57-1.04-.86-2-.86-.42,0-.83.05-1.23.16-.4.1-.75.27-1.07.51-.31.23-.57.52-.75.86-.19.34-.28.73-.28,1.17v11.9h-5.18Z"/>
    <path class="cls-2" d="M157.41,48.56c-1.38,0-2.6-.23-3.67-.68-1.07-.45-1.97-1.1-2.7-1.92-.72-.83-1.27-1.84-1.65-3.03-.37-1.19-.56-2.52-.56-3.99s.19-2.79.56-3.97c.37-1.18.92-2.19,1.65-3.03s1.62-1.48,2.7-1.92c1.07-.44,2.3-.67,3.67-.67,1.87,0,3.42.42,4.67,1.26,1.25.84,2.14,2.02,2.68,3.54l-4.2,1.82c-.16-.7-.5-1.29-1.01-1.78-.51-.49-1.23-.74-2.14-.74-1.05,0-1.84.34-2.38,1.03-.54.69-.81,1.62-.81,2.78v3.43c0,1.17.27,2.09.81,2.77.54.68,1.33,1.02,2.38,1.02.93,0,1.67-.25,2.22-.75.55-.5.95-1.16,1.21-1.98l4.03,1.75c-.61,1.75-1.55,3.03-2.82,3.85-1.27.82-2.82,1.23-4.64,1.23Z"/>
    <path class="cls-2" d="M175.58,48.56c-1.4,0-2.65-.23-3.75-.68-1.1-.45-2.02-1.1-2.78-1.92-.76-.83-1.33-1.84-1.71-3.03-.39-1.19-.58-2.52-.58-3.99s.19-2.76.56-3.94c.37-1.18.93-2.19,1.66-3.03s1.64-1.49,2.71-1.94c1.07-.46,2.3-.68,3.67-.68,1.52,0,2.82.26,3.9.77s1.97,1.2,2.66,2.06c.69.86,1.19,1.86,1.5,2.99s.47,2.32.47,3.55v1.54h-11.79v.28c0,1.2.33,2.16.98,2.86.65.71,1.68,1.06,3.08,1.06,1.07,0,1.95-.21,2.62-.64s1.31-.94,1.89-1.54l2.59,3.23c-.82.96-1.88,1.71-3.2,2.25s-2.82.81-4.5.81ZM175.47,33.16c-1.05,0-1.87.34-2.47,1.03-.6.69-.89,1.6-.89,2.75v.28h6.44v-.31c0-1.12-.25-2.02-.75-2.71-.5-.69-1.28-1.03-2.33-1.03Z"/>
  </g>
</svg>